<svg width="479" height="459" viewBox="0 0 479 459" fill="none" xmlns="http://www.w3.org/2000/svg">
<path d="M405.604 18.8874V439.17C405.599 444.176 403.509 448.976 399.793 452.515C396.078 456.054 391.041 458.043 385.788 458.044H206.775C204.173 458.049 201.595 457.563 199.189 456.617C196.784 455.67 194.598 454.28 192.757 452.527C190.917 450.773 189.457 448.691 188.462 446.399C187.467 444.107 186.956 441.65 186.959 439.17V18.8874C186.959 16.407 187.471 13.9509 188.467 11.6593C189.463 9.36764 190.922 7.28542 192.762 5.53152C194.602 3.77762 196.787 2.38639 199.191 1.43729C201.596 0.488181 204.173 -0.000212866 206.775 8.86128e-07H233.564V3.27434C233.563 7.39875 235.282 11.3545 238.341 14.2715C241.4 17.1885 245.55 18.8279 249.877 18.8291H340.924C344.407 18.8362 347.8 17.772 350.597 15.7946C351.163 15.4025 351.699 14.9735 352.203 14.5108C353.797 13.0604 355.065 11.3166 355.93 9.38503C356.795 7.45351 357.24 5.37458 357.237 3.27434V8.86128e-07H385.788C388.39 -0.00075904 390.967 0.487261 393.372 1.43617C395.777 2.38509 397.961 3.77629 399.802 5.5303C401.642 7.28431 403.102 9.36675 404.097 11.6586C405.093 13.9505 405.605 16.4069 405.604 18.8874V18.8874Z" fill="#3F3D56"/>
<path d="M379.432 151.508H213.131V272.107H379.432V151.508Z" fill="#FA255E"/>
<path d="M260.502 224.79C260.861 222.588 261.572 220.551 262.574 218.857C263.576 217.163 264.839 215.862 266.252 215.068C267.665 214.274 269.185 214.011 270.681 214.302C272.178 214.593 273.604 215.429 274.836 216.737L275.216 217.154C283.367 226.335 278.529 243.173 275.216 243.553C271.903 243.934 265.53 244.344 265.53 244.344C265.53 244.344 258.022 239.688 260.502 224.79Z" fill="#192534"/>
<path d="M334.041 213.347V216.408C334.041 216.408 300.911 219.848 297.374 219.848H290.753C290.753 219.848 290.655 220.002 290.494 220.28C290.221 220.741 289.759 221.554 289.247 222.564C288.204 224.6 286.962 227.44 286.675 229.797C286.187 234.007 284.385 235.537 284.385 235.537L277.764 232.865L271.376 221.386L270.446 220.039L267.796 216.239L265.53 212.981L265.642 211.151V210.873C266.184 206.941 266.877 203.059 267.718 199.247C267.718 199.145 267.761 199.035 267.786 198.933C269.623 190.645 272.687 180.579 277.101 177.585C277.437 177.358 277.788 177.138 278.163 176.941L278.611 176.707C287.079 172.446 303.079 174.137 303.079 174.137C303.079 174.137 315.298 179.496 316.321 181.795C317.344 184.093 328.925 203.025 328.925 203.025C329.941 204.177 330.878 205.479 331.721 206.912C332.808 208.721 333.816 210.997 334.041 213.347Z" fill="#523B57"/>
<path opacity="0.1" d="M264.522 238.604C266.491 238.604 268.088 234.835 268.088 230.185C268.088 225.536 266.491 221.766 264.522 221.766C262.552 221.766 260.955 225.536 260.955 230.185C260.955 234.835 262.552 238.604 264.522 238.604Z" fill="white"/>
<path opacity="0.1" d="M279.294 180.44C279.294 180.44 276.37 187.175 273.281 195.814C273.28 195.836 273.28 195.858 273.281 195.88C272.458 198.179 271.62 200.602 270.821 203.084L270.787 203.201C270.787 203.201 269.096 201.188 267.766 199.226C267.766 199.123 267.81 199.013 267.835 198.911C269.671 190.624 272.736 180.557 277.15 177.563C277.486 177.336 277.837 177.116 278.212 176.919L279.294 180.44Z" fill="black"/>
<path opacity="0.1" d="M270.636 203.018C270.636 203.018 288.716 211.071 292.278 207.608C292.278 207.608 293.554 183.12 285.15 181.59C285.15 181.59 280.312 179.672 279.303 180.857C278.295 182.043 270.636 203.018 270.636 203.018Z" fill="white"/>
<path opacity="0.1" d="M294.061 185.03C294.061 185.03 297.627 205.309 300.175 205.697C302.723 206.085 328.433 205.309 327.42 202.63C326.406 199.95 315.196 182.739 315.196 182.739L294.061 185.03Z" fill="white"/>
<path d="M289.686 221.723C289.686 221.723 294.314 212.579 302.465 221.766C310.616 230.954 305.773 247.785 302.465 248.165C299.157 248.546 292.814 248.934 292.814 248.934C292.814 248.934 282.763 242.726 289.686 221.723Z" fill="#192534"/>
<path d="M337.758 224.051C337.419 222.605 336.884 221.282 336.187 220.163C335.49 219.044 334.646 218.155 333.709 217.551C332.772 216.947 331.762 216.641 330.742 216.654C329.722 216.666 328.715 216.996 327.785 217.623C326.875 218.268 326.012 219.055 325.212 219.973C317.958 228.143 322.289 243.129 325.212 243.473C326.27 243.59 327.678 243.714 329.047 243.824C330.448 243.936 331.848 243.558 333.136 242.719C334.424 241.88 335.564 240.603 336.468 238.99C337.372 237.376 338.014 235.47 338.345 233.42C338.675 231.37 338.684 229.233 338.372 227.177C338.207 226.118 338.002 225.074 337.758 224.051V224.051Z" fill="#192534"/>
<path opacity="0.1" d="M291.771 243.195C293.741 243.195 295.337 239.425 295.337 234.776C295.337 230.126 293.741 226.357 291.771 226.357C289.802 226.357 288.205 230.126 288.205 234.776C288.205 239.425 289.802 243.195 291.771 243.195Z" fill="white"/>
<path opacity="0.1" d="M301.7 218.706C301.7 218.706 301.213 207.608 309.086 212.198C316.959 216.788 311.887 221.766 311.887 221.766L301.7 218.706Z" fill="white"/>
<path opacity="0.1" d="M334.041 213.347V214.878L332.769 215.61L330.172 214.878C330.172 214.878 329.617 208.611 331.746 206.825C332.808 208.721 333.817 210.997 334.041 213.347Z" fill="white"/>
<path opacity="0.1" d="M334.041 213.421V216.408C334.041 216.408 300.911 219.848 297.374 219.848H297.344C295.513 218.384 293.681 217.733 292.141 218.706C291.672 218.998 291.232 219.382 290.83 219.848C290.714 219.987 290.601 220.134 290.494 220.28C290.009 220.949 289.589 221.718 289.247 222.564C286.967 228.106 287.454 236.686 287.454 236.686C280.833 239.746 273.959 231.716 273.959 231.716C272.711 226.093 271.547 222.425 270.48 220.002C269.506 217.806 268.619 216.73 267.83 216.203L265.53 212.981L265.642 211.151L284.122 231.342C284.122 231.342 285.905 214.123 289.968 215.273C294.031 216.422 302.192 216.422 302.192 216.422L334.041 213.421Z" fill="black"/>
<path d="M264.522 211.049C264.522 211.049 262.992 216.788 264.522 217.176C266.052 217.564 269.487 212.784 273.944 232.865C273.944 232.865 280.819 240.918 287.44 237.836C287.44 237.836 286.651 223.297 292.141 219.848C297.632 216.4 306.792 233.626 306.792 233.626V237.455L328.438 234.007C328.438 234.007 335.059 226.357 334.806 214.497L302.212 217.557C302.212 217.557 294.061 217.557 289.988 216.408C285.915 215.258 284.142 232.513 284.142 232.513L264.522 211.049Z" fill="#523B57"/>
<path d="M125.558 131.188C140.365 131.491 152.143 141.718 152.143 141.718C152.143 141.718 139.915 151.454 125.109 151.151C110.302 150.849 98.5237 140.622 98.5237 140.622C98.5237 140.622 110.751 130.885 125.558 131.188Z" fill="#FA255E"/>
<path d="M51.1178 83.0144C64.4949 89.0717 79.8342 84.9641 79.8342 84.9641C79.8342 84.9641 73.4849 71.0357 60.1078 64.9784C46.7307 58.921 31.3914 63.0286 31.3914 63.0286C31.3914 63.0286 37.7407 76.957 51.1178 83.0144Z" fill="#FA255E"/>
<path d="M52.4778 76.9949C67.2264 75.7102 80.1358 84.6113 80.1358 84.6113C80.1358 84.6113 69.133 95.5953 54.3845 96.88C39.6359 98.1646 26.7266 89.2636 26.7266 89.2636C26.7266 89.2636 37.7293 78.2796 52.4778 76.9949Z" fill="#3F3D56"/>
<path d="M106.541 79.4287C105.128 93.4801 114.409 105.824 114.409 105.824C114.409 105.824 125.982 95.3861 127.396 81.3347C128.809 67.2833 119.528 54.9394 119.528 54.9394C119.528 54.9394 107.955 65.3773 106.541 79.4287Z" fill="#3F3D56"/>
<path d="M176 165.605C168.264 177.643 170.925 192.616 170.925 192.616C170.925 192.616 186.129 188.072 193.865 176.035C201.6 163.998 198.939 149.025 198.939 149.025C198.939 149.025 183.735 153.568 176 165.605Z" fill="#3F3D56"/>
<path d="M153.557 296.481L154.685 295.754C150.711 290.258 148.541 283.76 148.451 277.086C148.483 267.323 153.514 258.293 158.38 249.56C159.283 247.939 160.183 246.323 161.049 244.708C164.684 238.124 167.581 231.193 169.692 224.03C177.239 197.297 169.808 165.757 149.815 139.661C133.954 118.958 110.31 100.856 77.5334 84.3174L76.897 85.4635C109.487 101.907 132.979 119.886 148.716 140.425C168.469 166.208 175.819 197.336 168.378 223.693C166.292 230.768 163.429 237.614 159.838 244.118C158.975 245.727 158.078 247.336 157.178 248.951C152.235 257.824 147.123 266.998 147.091 277.082C147.181 284.016 149.432 290.769 153.557 296.481V296.481Z" fill="#3F3D56"/>
<path d="M12.9251 86.0213C20.0635 86.0213 25.8502 80.5058 25.8502 73.702C25.8502 66.8983 20.0635 61.3828 12.9251 61.3828C5.78677 61.3828 0 66.8983 0 73.702C0 80.5058 5.78677 86.0213 12.9251 86.0213Z" fill="#3F3D56"/>
<path d="M194.871 273.673L113.736 267.229V153.808L194.871 149.942V273.673Z" fill="#FA255E"/>
<path d="M397.692 273.673L478.827 267.229V153.808L397.692 149.942V273.673Z" fill="#FA255E"/>
<path d="M296.282 327.22C307.177 327.22 316.009 318.801 316.009 308.417C316.009 298.032 307.177 289.614 296.282 289.614C285.386 289.614 276.554 298.032 276.554 308.417C276.554 318.801 285.386 327.22 296.282 327.22Z" fill="#FA255E"/>
<path d="M308.702 306.56H298.23V296.578H294.333V306.56H283.86V310.274H294.333V320.256H298.23V310.274H308.702V306.56Z" fill="white"/>
<path d="M358.502 309.065L348.298 304.526V307.12H324.489V311.01H348.298V313.604L358.502 309.065Z" fill="white"/>
<path d="M234.061 309.065L244.265 304.526V307.12H268.075V311.01H244.265V313.604L234.061 309.065Z" fill="white"/>
<path d="M361.587 61.3825H230.976V62.6793H361.587V61.3825Z" fill="white"/>
<path d="M361.903 415.4H231.292V416.697H361.903V415.4Z" fill="white"/>
<path d="M434.239 180.603C433.893 181.98 433.631 183.377 433.453 184.786C433.145 187.686 433.781 187.485 433.005 190.297C431.113 189.319 428.988 191.525 427.095 190.546C426.924 190.454 426.719 190.336 426.685 190.141C426.681 189.964 426.749 189.792 426.873 189.664C428.038 188.1 428.972 186.381 429.646 184.559C430.178 183.118 430.547 181.616 431.225 180.238C431.626 179.422 432.161 178.63 432.954 178.171C433.393 177.917 435.176 177.442 435.347 178.282C435.393 178.526 434.834 179 434.706 179.229C434.486 179.663 434.329 180.126 434.239 180.603V180.603Z" fill="#F86D70"/>
<path d="M429.813 194.324C433.885 194.324 437.185 191.078 437.185 187.074C437.185 183.07 433.885 179.824 429.813 179.824C425.742 179.824 422.442 183.07 422.442 187.074C422.442 191.078 425.742 194.324 429.813 194.324Z" fill="#523B57"/>
<path d="M451.629 194.324C455.7 194.324 459 191.078 459 187.074C459 183.07 455.7 179.824 451.629 179.824C447.558 179.824 444.257 183.07 444.257 187.074C444.257 191.078 447.558 194.324 451.629 194.324Z" fill="#523B57"/>
<path opacity="0.1" d="M449.835 194.324C452.917 194.324 455.415 191.512 455.415 188.043C455.415 184.573 452.917 181.761 449.835 181.761C446.754 181.761 444.255 184.573 444.255 188.043C444.255 191.512 446.754 194.324 449.835 194.324Z" fill="black"/>
<path opacity="0.1" d="M431.607 194.324C434.688 194.324 437.186 191.512 437.186 188.043C437.186 184.573 434.688 181.761 431.607 181.761C428.525 181.761 426.027 184.573 426.027 188.043C426.027 191.512 428.525 194.324 431.607 194.324Z" fill="black"/>
<path d="M466.973 216.621C466.761 218.878 464.922 221.08 462.618 221.094C461.592 221.094 460.623 220.698 459.711 220.239C458.922 219.841 458.142 219.38 457.569 218.713C457.486 218.615 457.409 218.516 457.335 218.413C456.422 217.139 456.231 215.448 455.436 214.076C454.008 211.609 450.959 210.61 448.152 209.953C445.191 209.258 442.196 208.719 439.178 208.335C437.127 208.073 435.043 207.885 432.988 208.134C428.615 208.663 424.666 211.131 420.312 211.696C420.165 211.715 420.018 211.732 419.869 211.747C418.501 211.881 417.115 211.814 415.744 211.938C413.462 212.145 411.215 212.885 408.928 212.732C406.641 212.579 404.17 211.113 404.008 208.865C403.893 207.281 404.988 205.8 406.372 204.984C407.757 204.169 409.393 203.891 410.988 203.664C415.223 203.061 419.57 202.677 423.468 200.956C424.863 200.34 426.186 199.558 427.627 199.057C428.268 198.831 428.934 198.68 429.612 198.608C430.459 198.513 431.318 198.621 432.114 198.923L430.063 199.69L450.094 198.299L450.883 198.245C451.832 198.18 452.798 198.114 453.726 198.321C455.323 198.677 456.633 199.804 457.643 201.075C458.653 202.346 459.407 203.791 460.354 205.11C461.686 206.96 463.373 208.534 464.739 210.356C466.105 212.179 467.184 214.366 466.973 216.621Z" fill="#523B57"/>
<path opacity="0.1" d="M457.638 213.719C457.647 215.289 457.548 216.857 457.342 218.414C456.429 217.139 456.238 215.448 455.443 214.076C454.015 211.609 450.965 210.61 448.158 209.953C445.198 209.258 442.203 208.719 439.185 208.335C437.134 208.073 435.05 207.885 432.995 208.134C428.622 208.663 424.673 211.131 420.319 211.696C421.266 205.045 424.686 200.784 429.627 198.607C432.309 197.43 435.439 196.858 438.874 196.858C443.09 196.858 446.979 197.026 450.112 198.297C454.68 200.147 457.638 204.33 457.638 213.719Z" fill="black"/>
<path d="M456.677 214.39C456.677 217.943 456.244 220.72 455.455 222.889C453.516 228.208 449.439 229.874 444.365 230.375C442.655 230.543 440.842 230.58 438.954 230.58C436.575 230.597 434.207 230.273 431.923 229.618C427.692 228.366 424.22 225.859 422.454 221.948C421.502 219.843 421.045 217.332 421.23 214.39C421.938 203.165 429.165 198.195 438.954 198.195C448.743 198.195 456.677 199.192 456.677 214.39Z" fill="#2F2E41"/>
<path opacity="0.1" d="M440.722 208.33C448.363 208.33 454.557 202.238 454.557 194.723C454.557 187.208 448.363 181.115 440.722 181.115C433.081 181.115 426.887 187.208 426.887 194.723C426.887 202.238 433.081 208.33 440.722 208.33Z" fill="black"/>
<path d="M440.722 207.535C448.363 207.535 454.557 201.443 454.557 193.928C454.557 186.412 448.363 180.32 440.722 180.32C433.081 180.32 426.887 186.412 426.887 193.928C426.887 201.443 433.081 207.535 440.722 207.535Z" fill="#2F2E41"/>
<path d="M438.954 190.205C439.345 190.205 439.662 189.893 439.662 189.509C439.662 189.124 439.345 188.813 438.954 188.813C438.563 188.813 438.246 189.124 438.246 189.509C438.246 189.893 438.563 190.205 438.954 190.205Z" fill="#FBBEBE"/>
<path d="M442.387 190.205C442.778 190.205 443.095 189.893 443.095 189.509C443.095 189.124 442.778 188.813 442.387 188.813C441.996 188.813 441.679 189.124 441.679 189.509C441.679 189.893 441.996 190.205 442.387 190.205Z" fill="#FBBEBE"/>
<path opacity="0.1" d="M440.722 200.144C444.71 200.144 447.943 198.095 447.943 195.567C447.943 193.039 444.71 190.99 440.722 190.99C436.734 190.99 433.501 193.039 433.501 195.567C433.501 198.095 436.734 200.144 440.722 200.144Z" fill="black"/>
<path d="M440.722 199.888C444.487 199.888 447.54 197.953 447.54 195.567C447.54 193.18 444.487 191.246 440.722 191.246C436.957 191.246 433.904 193.18 433.904 195.567C433.904 197.953 436.957 199.888 440.722 199.888Z" fill="#523B57"/>
<path opacity="0.1" d="M431.923 229.618C427.692 228.366 424.22 225.859 422.454 221.948C423.051 221.744 423.678 221.64 424.31 221.64C427.919 221.64 430.964 225.008 431.923 229.618Z" fill="black"/>
<path d="M431.834 233.411C431.834 239.527 428.285 244.485 423.907 244.485C420.941 244.485 418.356 242.212 416.997 238.842C416.311 237.111 415.963 235.269 415.971 233.411C415.971 227.295 419.522 222.336 423.9 222.336C427.851 222.336 431.128 226.371 431.728 231.661C431.797 232.242 431.833 232.826 431.834 233.411V233.411Z" fill="#2F2E41"/>
<path opacity="0.1" d="M431.834 233.411C431.834 239.527 428.285 244.485 423.907 244.485C420.941 244.485 418.356 242.212 416.997 238.842C417.212 234.415 421.76 230.878 427.34 230.878C428.844 230.869 430.336 231.133 431.743 231.654C431.808 232.238 431.838 232.825 431.834 233.411Z" fill="black"/>
<path d="M427.947 247.863C433.663 247.863 438.298 244.149 438.298 239.569C438.298 234.988 433.663 231.274 427.947 231.274C422.23 231.274 417.595 234.988 417.595 239.569C417.595 244.149 422.23 247.863 427.947 247.863Z" fill="#523B57"/>
<path d="M428.728 247.863C434.012 247.863 438.296 244.383 438.296 240.09C438.296 235.797 434.012 232.317 428.728 232.317C423.444 232.317 419.16 235.797 419.16 240.09C419.16 244.383 423.444 247.863 428.728 247.863Z" fill="#2F2E41"/>
<path opacity="0.1" d="M432.137 239.133C433.057 239.133 433.803 238.216 433.803 237.085C433.803 235.954 433.057 235.037 432.137 235.037C431.216 235.037 430.47 235.954 430.47 237.085C430.47 238.216 431.216 239.133 432.137 239.133Z" fill="black"/>
<path d="M432.137 238.824C432.917 238.824 433.55 238.045 433.55 237.085C433.55 236.125 432.917 235.347 432.137 235.347C431.356 235.347 430.723 236.125 430.723 237.085C430.723 238.045 431.356 238.824 432.137 238.824Z" fill="#523B57"/>
<path opacity="0.1" d="M427.189 240.662C428.157 240.662 428.941 239.839 428.941 238.824C428.941 237.809 428.157 236.986 427.189 236.986C426.221 236.986 425.437 237.809 425.437 238.824C425.437 239.839 426.221 240.662 427.189 240.662Z" fill="black"/>
<path d="M427.189 240.413C428.026 240.413 428.704 239.701 428.704 238.824C428.704 237.946 428.026 237.235 427.189 237.235C426.353 237.235 425.675 237.946 425.675 238.824C425.675 239.701 426.353 240.413 427.189 240.413Z" fill="#523B57"/>
<path opacity="0.1" d="M424.463 244.488C425.494 244.488 426.331 243.82 426.331 242.995C426.331 242.171 425.494 241.502 424.463 241.502C423.431 241.502 422.594 242.171 422.594 242.995C422.594 243.82 423.431 244.488 424.463 244.488Z" fill="black"/>
<path d="M424.463 244.287C425.355 244.287 426.078 243.708 426.078 242.995C426.078 242.282 425.355 241.704 424.463 241.704C423.57 241.704 422.847 242.282 422.847 242.995C422.847 243.708 423.57 244.287 424.463 244.287Z" fill="#523B57"/>
<path opacity="0.1" d="M433.081 246.027C434.861 244.505 435.648 242.529 434.839 241.614C434.03 240.699 431.931 241.191 430.151 242.713C428.372 244.235 427.585 246.211 428.394 247.126C429.203 248.041 431.302 247.549 433.081 246.027Z" fill="black"/>
<path d="M432.985 245.918C434.649 244.495 435.385 242.649 434.629 241.794C433.873 240.939 431.912 241.399 430.248 242.822C428.584 244.245 427.849 246.091 428.604 246.946C429.36 247.801 431.322 247.341 432.985 245.918Z" fill="#523B57"/>
<path opacity="0.1" d="M455.454 222.889C453.516 228.208 449.439 229.874 444.365 230.375C445.185 225.482 448.329 221.838 452.082 221.838C453.288 221.848 454.463 222.214 455.454 222.889V222.889Z" fill="black"/>
<path d="M460.616 233.411C460.63 235.434 460.218 237.438 459.404 239.296C458.002 242.413 455.518 244.485 452.689 244.485C448.31 244.485 444.761 239.527 444.761 233.411C444.761 232.836 444.792 232.26 444.856 231.688C445.449 226.39 448.729 222.336 452.689 222.336C457.067 222.336 460.616 227.295 460.616 233.411Z" fill="#2F2E41"/>
<path opacity="0.1" d="M459.404 239.271V239.296C458.002 242.413 455.518 244.485 452.689 244.485C448.31 244.485 444.761 239.527 444.761 233.411C444.761 232.836 444.792 232.26 444.856 231.688C446.202 231.215 447.622 230.976 449.052 230.982C454.769 230.982 459.404 234.689 459.404 239.271Z" fill="black"/>
<path d="M448.649 247.863C454.366 247.863 459 244.149 459 239.569C459 234.988 454.366 231.274 448.649 231.274C442.932 231.274 438.298 234.988 438.298 239.569C438.298 244.149 442.932 247.863 448.649 247.863Z" fill="#523B57"/>
<path d="M447.765 247.863C452.994 247.863 457.233 244.383 457.233 240.09C457.233 235.797 452.994 232.317 447.765 232.317C442.537 232.317 438.298 235.797 438.298 240.09C438.298 244.383 442.537 247.863 447.765 247.863Z" fill="#2F2E41"/>
<path opacity="0.1" d="M444.457 239.172C445.394 239.172 446.153 238.238 446.153 237.085C446.153 235.933 445.394 234.999 444.457 234.999C443.521 234.999 442.761 235.933 442.761 237.085C442.761 238.238 443.521 239.172 444.457 239.172Z" fill="black"/>
<path d="M444.457 238.824C445.238 238.824 445.871 238.045 445.871 237.085C445.871 236.125 445.238 235.347 444.457 235.347C443.676 235.347 443.043 236.125 443.043 237.085C443.043 238.045 443.676 238.824 444.457 238.824Z" fill="#523B57"/>
<path opacity="0.1" d="M449.406 240.662C450.374 240.662 451.159 239.839 451.159 238.824C451.159 237.809 450.374 236.986 449.406 236.986C448.439 236.986 447.654 237.809 447.654 238.824C447.654 239.839 448.439 240.662 449.406 240.662Z" fill="black"/>
<path d="M449.406 240.413C450.243 240.413 450.921 239.701 450.921 238.824C450.921 237.946 450.243 237.235 449.406 237.235C448.57 237.235 447.892 237.946 447.892 238.824C447.892 239.701 448.57 240.413 449.406 240.413Z" fill="#523B57"/>
<path opacity="0.1" d="M452.133 244.488C453.165 244.488 454.001 243.82 454.001 242.995C454.001 242.171 453.165 241.502 452.133 241.502C451.101 241.502 450.264 242.171 450.264 242.995C450.264 243.82 451.101 244.488 452.133 244.488Z" fill="black"/>
<path d="M452.133 244.287C453.025 244.287 453.749 243.708 453.749 242.995C453.749 242.282 453.025 241.704 452.133 241.704C451.241 241.704 450.518 242.282 450.518 242.995C450.518 243.708 451.241 244.287 452.133 244.287Z" fill="#523B57"/>
<path opacity="0.1" d="M448.202 247.149C449.011 246.234 448.225 244.258 446.445 242.736C444.665 241.214 442.567 240.721 441.758 241.637C440.948 242.552 441.735 244.528 443.515 246.05C445.295 247.572 447.393 248.064 448.202 247.149Z" fill="black"/>
<path d="M447.992 246.969C448.748 246.114 448.012 244.268 446.348 242.845C444.685 241.422 442.724 240.962 441.968 241.816C441.212 242.671 441.948 244.518 443.611 245.941C445.275 247.363 447.236 247.824 447.992 246.969Z" fill="#523B57"/>
<path d="M151.498 221.881C152.633 221.881 153.554 220.818 153.554 219.507C153.554 218.196 152.633 217.133 151.498 217.133C150.362 217.133 149.441 218.196 149.441 219.507C149.441 220.818 150.362 221.881 151.498 221.881Z" fill="#3F3D56"/>
<path d="M151.498 218.915C152.633 218.915 153.554 217.851 153.554 216.54C153.554 215.229 152.633 214.166 151.498 214.166C150.362 214.166 149.441 215.229 149.441 216.54C149.441 217.851 150.362 218.915 151.498 218.915Z" fill="#3F3D56"/>
<path d="M151.498 215.948C152.633 215.948 153.554 214.885 153.554 213.573C153.554 212.262 152.633 211.199 151.498 211.199C150.362 211.199 149.441 212.262 149.441 213.573C149.441 214.885 150.362 215.948 151.498 215.948Z" fill="#3F3D56"/>
<path d="M151.498 212.976C152.633 212.976 153.554 211.913 153.554 210.602C153.554 209.29 152.633 208.227 151.498 208.227C150.362 208.227 149.441 209.29 149.441 210.602C149.441 211.913 150.362 212.976 151.498 212.976Z" fill="#3F3D56"/>
<path d="M151.498 210.009C152.633 210.009 153.554 208.946 153.554 207.635C153.554 206.323 152.633 205.26 151.498 205.26C150.362 205.26 149.441 206.323 149.441 207.635C149.441 208.946 150.362 210.009 151.498 210.009Z" fill="#3F3D56"/>
<path d="M151.498 207.042C152.633 207.042 153.554 205.979 153.554 204.668C153.554 203.357 152.633 202.294 151.498 202.294C150.362 202.294 149.441 203.357 149.441 204.668C149.441 205.979 150.362 207.042 151.498 207.042Z" fill="#3F3D56"/>
<path d="M151.498 204.076C152.633 204.076 153.554 203.012 153.554 201.701C153.554 200.39 152.633 199.327 151.498 199.327C150.362 199.327 149.441 200.39 149.441 201.701C149.441 203.012 150.362 204.076 151.498 204.076Z" fill="#3F3D56"/>
<path d="M154.584 205.265C155.72 205.265 156.64 204.202 156.64 202.891C156.64 201.579 155.72 200.516 154.584 200.516C153.448 200.516 152.528 201.579 152.528 202.891C152.528 204.202 153.448 205.265 154.584 205.265Z" fill="#3F3D56"/>
<path d="M156.641 204.076C157.776 204.076 158.697 203.012 158.697 201.701C158.697 200.39 157.776 199.327 156.641 199.327C155.505 199.327 154.584 200.39 154.584 201.701C154.584 203.012 155.505 204.076 156.641 204.076Z" fill="#3F3D56"/>
<path d="M158.693 202.891C159.828 202.891 160.749 201.828 160.749 200.516C160.749 199.205 159.828 198.142 158.693 198.142C157.557 198.142 156.636 199.205 156.636 200.516C156.636 201.828 157.557 202.891 158.693 202.891Z" fill="#3F3D56"/>
<path d="M151.498 201.109C152.633 201.109 153.554 200.046 153.554 198.734C153.554 197.423 152.633 196.36 151.498 196.36C150.362 196.36 149.441 197.423 149.441 198.734C149.441 200.046 150.362 201.109 151.498 201.109Z" fill="#3F3D56"/>
<path d="M151.498 198.142C152.633 198.142 153.554 197.079 153.554 195.767C153.554 194.456 152.633 193.393 151.498 193.393C150.362 193.393 149.441 194.456 149.441 195.767C149.441 197.079 150.362 198.142 151.498 198.142Z" fill="#3F3D56"/>
<path d="M151.498 195.175C152.633 195.175 153.554 194.112 153.554 192.801C153.554 191.489 152.633 190.426 151.498 190.426C150.362 190.426 149.441 191.489 149.441 192.801C149.441 194.112 150.362 195.175 151.498 195.175Z" fill="#3F3D56"/>
<path d="M151.498 192.208C152.633 192.208 153.554 191.145 153.554 189.834C153.554 188.522 152.633 187.459 151.498 187.459C150.362 187.459 149.441 188.522 149.441 189.834C149.441 191.145 150.362 192.208 151.498 192.208Z" fill="#3F3D56"/>
<path d="M160.021 182.175C159.512 182.261 158.999 182.324 158.486 182.362C158.965 181.878 159.409 181.351 159.814 180.785C159.528 179.788 159.109 178.848 158.573 178C158.063 178.33 157.499 178.535 156.918 178.602C156.409 178.688 155.896 178.755 155.383 178.793C156.072 178.035 156.728 177.238 157.348 176.404C155.863 174.856 153.963 173.944 151.966 173.82C149.968 173.696 147.995 174.368 146.375 175.724C144.755 177.079 143.588 179.035 143.068 181.266C142.548 183.496 142.707 185.865 143.518 187.976C144.33 190.087 145.745 191.812 147.526 192.863C149.307 193.914 151.347 194.227 153.304 193.749C155.261 193.271 157.017 192.031 158.277 190.238C159.537 188.444 160.226 186.205 160.228 183.895C160.228 183.314 160.184 182.734 160.095 182.161L160.021 182.175Z" fill="#3F3D56"/>
<path d="M166.893 193.971C166.368 194.342 165.777 194.571 165.164 194.64C164.655 194.726 164.142 194.788 163.629 194.826C164.174 194.262 164.683 193.652 165.151 193.001C163.912 192.628 162.596 192.802 161.461 193.49C160.327 194.177 159.455 195.328 159.017 196.718C158.578 198.109 158.604 199.637 159.09 201.006C159.576 202.375 160.487 203.486 161.644 204.121C162.802 204.755 164.122 204.869 165.348 204.439C166.574 204.009 167.617 203.067 168.273 201.796C168.93 200.526 169.152 199.018 168.897 197.568C168.641 196.118 167.927 194.831 166.893 193.957V193.971Z" fill="#3F3D56"/>
<path d="M148.415 205.265C149.551 205.265 150.472 204.202 150.472 202.891C150.472 201.579 149.551 200.516 148.415 200.516C147.28 200.516 146.359 201.579 146.359 202.891C146.359 204.202 147.28 205.265 148.415 205.265Z" fill="#3F3D56"/>
<path d="M146.359 204.076C147.495 204.076 148.415 203.012 148.415 201.701C148.415 200.39 147.495 199.327 146.359 199.327C145.223 199.327 144.303 200.39 144.303 201.701C144.303 203.012 145.223 204.076 146.359 204.076Z" fill="#3F3D56"/>
<path d="M144.303 202.891C145.438 202.891 146.359 201.828 146.359 200.516C146.359 199.205 145.438 198.142 144.303 198.142C143.167 198.142 142.246 199.205 142.246 200.516C142.246 201.828 143.167 202.891 144.303 202.891Z" fill="#3F3D56"/>
<path d="M136.106 193.971C136.631 194.343 137.223 194.572 137.836 194.64C138.345 194.726 138.858 194.788 139.371 194.826C138.825 194.263 138.316 193.653 137.848 193.001C139.088 192.628 140.404 192.802 141.538 193.49C142.673 194.177 143.545 195.328 143.983 196.718C144.422 198.109 144.395 199.637 143.909 201.006C143.423 202.375 142.513 203.486 141.355 204.121C140.198 204.755 138.877 204.869 137.651 204.439C136.425 204.009 135.382 203.067 134.726 201.796C134.07 200.526 133.848 199.018 134.103 197.568C134.358 196.118 135.073 194.831 136.106 193.957V193.971Z" fill="#3F3D56"/>
<path d="M150.02 217.133H155.039C157.782 217.133 160.413 218.391 162.353 220.631C164.293 222.871 165.383 225.909 165.383 229.076V244.78C165.383 245.317 165.198 245.833 164.869 246.212C164.54 246.592 164.094 246.806 163.629 246.806H141.431C140.966 246.806 140.52 246.592 140.191 246.212C139.862 245.833 139.677 245.317 139.677 244.78V229.076C139.677 225.909 140.767 222.871 142.706 220.631C144.646 218.391 147.277 217.133 150.02 217.133Z" fill="#3F3D56"/>
<g opacity="0.1">
<path opacity="0.1" d="M160.178 182.825C159.97 183.082 159.749 183.324 159.516 183.551C159.752 183.551 159.984 183.508 160.219 183.48C160.228 183.26 160.199 183.04 160.178 182.825Z" fill="black"/>
<path opacity="0.1" d="M156.429 179.987C156.947 179.949 157.456 179.887 157.969 179.801C158.429 179.734 158.879 179.592 159.305 179.381C159.096 178.903 158.855 178.445 158.585 178.009C158.328 178.19 158.049 178.327 157.758 178.416C157.352 178.98 156.908 179.505 156.429 179.987V179.987Z" fill="black"/>
<path opacity="0.1" d="M143.789 185.085C143.786 183.274 144.206 181.495 145.005 179.936C145.804 178.377 146.952 177.096 148.329 176.228C149.705 175.359 151.259 174.935 152.827 175.001C154.394 175.066 155.918 175.619 157.236 176.6L157.369 176.438C156.508 175.554 155.505 174.875 154.416 174.441C153.327 174.006 152.175 173.825 151.025 173.907C149.876 173.99 148.752 174.334 147.718 174.92C146.684 175.506 145.761 176.323 145.001 177.323C144.242 178.323 143.661 179.487 143.293 180.747C142.925 182.007 142.777 183.339 142.856 184.666C142.936 185.993 143.242 187.288 143.757 188.478C144.273 189.667 144.987 190.727 145.858 191.597C144.52 189.779 143.787 187.47 143.789 185.085V185.085Z" fill="black"/>
</g>
<g opacity="0.1">
<path opacity="0.1" d="M163.629 196.011C164.142 195.973 164.655 195.911 165.164 195.825C165.777 195.758 166.369 195.529 166.893 195.156C167.474 195.65 167.958 196.28 168.315 197.004C168.671 197.728 168.892 198.531 168.962 199.36C168.982 199.152 168.992 198.943 168.991 198.734C168.995 197.806 168.809 196.89 168.45 196.061C168.091 195.231 167.567 194.51 166.922 193.957C166.397 194.328 165.806 194.557 165.193 194.626L164.779 194.683C164.426 195.159 164.041 195.603 163.629 196.011V196.011Z" fill="black"/>
<path opacity="0.1" d="M163.836 193.985C164.007 193.988 164.178 194.002 164.349 194.028C164.618 193.699 164.882 193.345 165.151 193.001C164.391 192.767 163.593 192.737 162.821 192.916C162.049 193.094 161.323 193.475 160.699 194.029C160.075 194.583 159.57 195.296 159.223 196.112C158.875 196.928 158.696 197.825 158.697 198.734C158.697 198.935 158.697 199.131 158.722 199.327C158.849 197.863 159.443 196.506 160.388 195.519C161.332 194.532 162.561 193.985 163.836 193.985V193.985Z" fill="black"/>
</g>
<g opacity="0.1">
<path opacity="0.1" d="M139.371 196.011C138.858 195.973 138.345 195.911 137.836 195.825C137.222 195.759 136.63 195.53 136.106 195.156C135.525 195.65 135.041 196.28 134.685 197.004C134.328 197.728 134.108 198.531 134.038 199.36C134.018 199.152 134.008 198.943 134.009 198.734C134.005 197.806 134.19 196.89 134.549 196.061C134.909 195.231 135.432 194.51 136.077 193.957C136.602 194.329 137.194 194.558 137.807 194.626L138.221 194.683C138.571 195.162 138.956 195.606 139.371 196.011Z" fill="black"/>
<path opacity="0.1" d="M139.164 193.985C138.991 193.988 138.818 194.002 138.647 194.028C138.382 193.699 138.117 193.345 137.848 193.001C138.609 192.767 139.406 192.737 140.178 192.916C140.95 193.094 141.676 193.475 142.3 194.029C142.924 194.583 143.429 195.296 143.777 196.112C144.124 196.928 144.304 197.825 144.303 198.734C144.303 198.935 144.303 199.131 144.278 199.327C144.151 197.863 143.557 196.506 142.612 195.519C141.667 194.532 140.438 193.985 139.164 193.985V193.985Z" fill="black"/>
</g>
</svg>
